<?xml version="1.0" standalone="no"?>
<!DOCTYPE svg PUBLIC "-//W3C//DTD SVG 20010904//EN"
 "http://www.w3.org/TR/2001/REC-SVG-20010904/DTD/svg10.dtd">
<svg version="1.0" xmlns="http://www.w3.org/2000/svg"
 width="1920.000000pt" height="1260.000000pt" viewBox="0 0 1920.000000 1260.000000"
 preserveAspectRatio="xMidYMid meet">

<g transform="translate(0.000000,1260.000000) scale(0.100000,-0.100000)"
fill="#000000" stroke="none">
<path d="M0 8574 c0 -3829 1 -4025 18 -4020 9 3 156 40 327 82 l310 76 172 5
c201 6 315 -4 613 -54 l215 -36 1835 9 c1009 5 2362 9 3005 8 1098 -1 1176 -2
1265 -20 89 -17 176 -18 1387 -21 l1292 -4 15 29 c28 53 40 151 27 213 -14 65
-61 167 -119 260 -23 36 -55 96 -73 134 -29 61 -33 81 -37 174 -5 125 7 205
78 506 55 238 67 298 76 408 8 92 12 96 124 131 134 43 315 64 755 91 138 8
333 26 435 40 513 68 978 85 1800 65 278 -6 825 -15 1215 -20 757 -9 844 -15
1045 -64 172 -42 341 -127 389 -194 53 -75 81 -221 81 -425 l0 -119 38 7 c38
7 126 41 287 112 50 22 115 46 145 53 75 18 194 15 271 -6 61 -17 70 -23 179
-134 93 -95 132 -126 203 -166 94 -51 147 -96 172 -145 41 -79 39 -304 -6
-552 -41 -228 -78 -345 -128 -400 l-36 -40 105 6 c58 4 206 18 330 32 278 31
468 33 635 6 175 -28 313 -40 548 -48 l207 -6 0 4026 0 4027 -9600 0 -9600 0
0 -4026z"/>
<path d="M16705 5599 c-49 -10 -100 -27 -113 -37 -12 -9 -89 -125 -171 -257
l-148 -240 -107 -36 c-119 -41 -165 -71 -213 -143 -31 -46 -33 -53 -33 -141 0
-86 2 -96 26 -125 61 -72 175 -105 359 -103 253 1 562 75 812 193 175 83 215
137 229 309 14 178 -90 524 -174 579 -40 26 -348 27 -467 1z"/>
</g>
</svg>
